<mxfile host="app.diagrams.net" agent="Mozilla/5.0 (Windows NT 10.0; Win64; x64) AppleWebKit/537.36 (KHTML, like Gecko) Chrome/128.0.0.0 Safari/537.36" version="24.7.10">
  <diagram name="Page-1" id="81XJQVSA4fRWj8L1BEyR">
    <mxGraphModel dx="7277" dy="2650" grid="1" gridSize="10" guides="1" tooltips="1" connect="1" arrows="1" fold="1" page="1" pageScale="1" pageWidth="827" pageHeight="1169" math="0" shadow="0">
      <root>
        <mxCell id="0" />
        <mxCell id="1" parent="0" />
        <mxCell id="8K5enLgzKz_FKoNzGH6i-1" value="&lt;font style=&quot;font-size: 48px;&quot;&gt;Diagramme de flux&lt;br&gt;&lt;/font&gt;" style="text;html=1;align=center;verticalAlign=middle;resizable=0;points=[];autosize=1;strokeColor=none;fillColor=none;" parent="1" vertex="1">
          <mxGeometry x="346" y="20" width="430" height="70" as="geometry" />
        </mxCell>
        <mxCell id="8K5enLgzKz_FKoNzGH6i-2" value="DEBUT" style="ellipse;whiteSpace=wrap;html=1;" parent="1" vertex="1">
          <mxGeometry x="500" y="130" width="120" height="80" as="geometry" />
        </mxCell>
        <mxCell id="8K5enLgzKz_FKoNzGH6i-3" value="" style="endArrow=classic;html=1;rounded=0;exitX=0.5;exitY=1;exitDx=0;exitDy=0;" parent="1" source="8K5enLgzKz_FKoNzGH6i-2" target="8K5enLgzKz_FKoNzGH6i-4" edge="1">
          <mxGeometry width="50" height="50" relative="1" as="geometry">
            <mxPoint x="580" y="570" as="sourcePoint" />
            <mxPoint x="560" y="330" as="targetPoint" />
          </mxGeometry>
        </mxCell>
        <mxCell id="8K5enLgzKz_FKoNzGH6i-4" value="&lt;div&gt;es ce que l&#39;utilisateur &lt;br&gt;&lt;/div&gt;&lt;div&gt;est connecté?&lt;br&gt;&lt;/div&gt;" style="rounded=0;whiteSpace=wrap;html=1;" parent="1" vertex="1">
          <mxGeometry x="500" y="300" width="120" height="60" as="geometry" />
        </mxCell>
        <mxCell id="8K5enLgzKz_FKoNzGH6i-5" value="" style="endArrow=classic;html=1;rounded=0;exitX=0.5;exitY=1;exitDx=0;exitDy=0;" parent="1" source="8K5enLgzKz_FKoNzGH6i-4" target="8K5enLgzKz_FKoNzGH6i-6" edge="1">
          <mxGeometry width="50" height="50" relative="1" as="geometry">
            <mxPoint x="580" y="570" as="sourcePoint" />
            <mxPoint x="560" y="500" as="targetPoint" />
          </mxGeometry>
        </mxCell>
        <mxCell id="8K5enLgzKz_FKoNzGH6i-6" value="a-t-il fais une commande ?" style="rounded=0;whiteSpace=wrap;html=1;" parent="1" vertex="1">
          <mxGeometry x="500" y="470" width="120" height="60" as="geometry" />
        </mxCell>
        <mxCell id="8K5enLgzKz_FKoNzGH6i-7" value="O" style="text;html=1;align=center;verticalAlign=middle;whiteSpace=wrap;rounded=0;" parent="1" vertex="1">
          <mxGeometry x="550" y="530" width="60" height="30" as="geometry" />
        </mxCell>
        <mxCell id="8K5enLgzKz_FKoNzGH6i-8" value="O" style="text;html=1;align=center;verticalAlign=middle;whiteSpace=wrap;rounded=0;" parent="1" vertex="1">
          <mxGeometry x="550" y="360" width="60" height="30" as="geometry" />
        </mxCell>
        <mxCell id="8K5enLgzKz_FKoNzGH6i-10" value="N" style="text;html=1;align=center;verticalAlign=middle;whiteSpace=wrap;rounded=0;" parent="1" vertex="1">
          <mxGeometry x="620" y="300" width="60" height="30" as="geometry" />
        </mxCell>
        <mxCell id="8K5enLgzKz_FKoNzGH6i-11" value="" style="endArrow=classic;html=1;rounded=0;exitX=1;exitY=0.5;exitDx=0;exitDy=0;" parent="1" source="8K5enLgzKz_FKoNzGH6i-4" target="8K5enLgzKz_FKoNzGH6i-12" edge="1">
          <mxGeometry width="50" height="50" relative="1" as="geometry">
            <mxPoint x="780" y="300" as="sourcePoint" />
            <mxPoint x="800" y="330" as="targetPoint" />
          </mxGeometry>
        </mxCell>
        <mxCell id="8K5enLgzKz_FKoNzGH6i-12" value="demandé de se connecter" style="rounded=0;whiteSpace=wrap;html=1;" parent="1" vertex="1">
          <mxGeometry x="740" y="300" width="120" height="60" as="geometry" />
        </mxCell>
        <mxCell id="8K5enLgzKz_FKoNzGH6i-13" value="" style="endArrow=classic;html=1;rounded=0;exitX=0.5;exitY=0;exitDx=0;exitDy=0;" parent="1" source="8K5enLgzKz_FKoNzGH6i-12" edge="1">
          <mxGeometry width="50" height="50" relative="1" as="geometry">
            <mxPoint x="800" y="290" as="sourcePoint" />
            <mxPoint x="560" y="250" as="targetPoint" />
            <Array as="points">
              <mxPoint x="800" y="250" />
            </Array>
          </mxGeometry>
        </mxCell>
        <mxCell id="8K5enLgzKz_FKoNzGH6i-14" value="N" style="text;html=1;align=center;verticalAlign=middle;whiteSpace=wrap;rounded=0;" parent="1" vertex="1">
          <mxGeometry x="620" y="470" width="60" height="30" as="geometry" />
        </mxCell>
        <mxCell id="8K5enLgzKz_FKoNzGH6i-15" value="" style="endArrow=classic;html=1;rounded=0;exitX=1;exitY=0.5;exitDx=0;exitDy=0;" parent="1" source="8K5enLgzKz_FKoNzGH6i-6" target="8K5enLgzKz_FKoNzGH6i-16" edge="1">
          <mxGeometry width="50" height="50" relative="1" as="geometry">
            <mxPoint x="580" y="570" as="sourcePoint" />
            <mxPoint x="820" y="500" as="targetPoint" />
          </mxGeometry>
        </mxCell>
        <mxCell id="8K5enLgzKz_FKoNzGH6i-16" value="attendre qu&#39;il en fasse une " style="rounded=0;whiteSpace=wrap;html=1;" parent="1" vertex="1">
          <mxGeometry x="740" y="470" width="120" height="60" as="geometry" />
        </mxCell>
        <mxCell id="8K5enLgzKz_FKoNzGH6i-17" value="" style="endArrow=classic;html=1;rounded=0;exitX=0.5;exitY=0;exitDx=0;exitDy=0;" parent="1" source="8K5enLgzKz_FKoNzGH6i-16" edge="1">
          <mxGeometry width="50" height="50" relative="1" as="geometry">
            <mxPoint x="580" y="570" as="sourcePoint" />
            <mxPoint x="560" y="410" as="targetPoint" />
            <Array as="points">
              <mxPoint x="800" y="410" />
            </Array>
          </mxGeometry>
        </mxCell>
        <mxCell id="8K5enLgzKz_FKoNzGH6i-18" value="" style="endArrow=classic;html=1;rounded=0;exitX=0.5;exitY=1;exitDx=0;exitDy=0;" parent="1" source="8K5enLgzKz_FKoNzGH6i-6" edge="1">
          <mxGeometry width="50" height="50" relative="1" as="geometry">
            <mxPoint x="580" y="570" as="sourcePoint" />
            <mxPoint x="560" y="650" as="targetPoint" />
          </mxGeometry>
        </mxCell>
        <mxCell id="8K5enLgzKz_FKoNzGH6i-21" style="edgeStyle=orthogonalEdgeStyle;rounded=0;orthogonalLoop=1;jettySize=auto;html=1;" parent="1" source="8K5enLgzKz_FKoNzGH6i-20" edge="1">
          <mxGeometry relative="1" as="geometry">
            <mxPoint x="560" y="840" as="targetPoint" />
            <Array as="points">
              <mxPoint x="691" y="710" />
            </Array>
          </mxGeometry>
        </mxCell>
        <mxCell id="8K5enLgzKz_FKoNzGH6i-22" style="edgeStyle=orthogonalEdgeStyle;rounded=0;orthogonalLoop=1;jettySize=auto;html=1;entryX=0.5;entryY=0;entryDx=0;entryDy=0;" parent="1" source="8K5enLgzKz_FKoNzGH6i-20" target="8K5enLgzKz_FKoNzGH6i-25" edge="1">
          <mxGeometry relative="1" as="geometry">
            <mxPoint x="560" y="880" as="targetPoint" />
          </mxGeometry>
        </mxCell>
        <mxCell id="8K5enLgzKz_FKoNzGH6i-23" style="edgeStyle=orthogonalEdgeStyle;rounded=0;orthogonalLoop=1;jettySize=auto;html=1;entryX=1;entryY=0.5;entryDx=0;entryDy=0;" parent="1" source="8K5enLgzKz_FKoNzGH6i-20" target="8K5enLgzKz_FKoNzGH6i-24" edge="1">
          <mxGeometry relative="1" as="geometry">
            <mxPoint x="200" y="700" as="targetPoint" />
          </mxGeometry>
        </mxCell>
        <mxCell id="8K5enLgzKz_FKoNzGH6i-20" value="qu&#39;a-t-il prit ?" style="rhombus;whiteSpace=wrap;html=1;" parent="1" vertex="1">
          <mxGeometry x="490" y="650" width="140" height="120" as="geometry" />
        </mxCell>
        <mxCell id="8K5enLgzKz_FKoNzGH6i-50" style="edgeStyle=orthogonalEdgeStyle;rounded=0;orthogonalLoop=1;jettySize=auto;html=1;" parent="1" source="8K5enLgzKz_FKoNzGH6i-24" target="8K5enLgzKz_FKoNzGH6i-53" edge="1">
          <mxGeometry relative="1" as="geometry">
            <mxPoint x="-10" y="690" as="targetPoint" />
          </mxGeometry>
        </mxCell>
        <mxCell id="8K5enLgzKz_FKoNzGH6i-51" style="edgeStyle=orthogonalEdgeStyle;rounded=0;orthogonalLoop=1;jettySize=auto;html=1;" parent="1" source="8K5enLgzKz_FKoNzGH6i-24" target="8K5enLgzKz_FKoNzGH6i-52" edge="1">
          <mxGeometry relative="1" as="geometry">
            <mxPoint x="155" y="850" as="targetPoint" />
          </mxGeometry>
        </mxCell>
        <mxCell id="8K5enLgzKz_FKoNzGH6i-24" value="quel type de vin" style="rhombus;whiteSpace=wrap;html=1;" parent="1" vertex="1">
          <mxGeometry x="90" y="630" width="130" height="120" as="geometry" />
        </mxCell>
        <mxCell id="8K5enLgzKz_FKoNzGH6i-37" style="edgeStyle=orthogonalEdgeStyle;rounded=0;orthogonalLoop=1;jettySize=auto;html=1;" parent="1" source="8K5enLgzKz_FKoNzGH6i-25" target="8K5enLgzKz_FKoNzGH6i-42" edge="1">
          <mxGeometry relative="1" as="geometry">
            <mxPoint x="560" y="1070" as="targetPoint" />
          </mxGeometry>
        </mxCell>
        <mxCell id="8K5enLgzKz_FKoNzGH6i-38" style="edgeStyle=orthogonalEdgeStyle;rounded=0;orthogonalLoop=1;jettySize=auto;html=1;" parent="1" source="8K5enLgzKz_FKoNzGH6i-25" target="8K5enLgzKz_FKoNzGH6i-39" edge="1">
          <mxGeometry relative="1" as="geometry">
            <mxPoint x="790" y="920" as="targetPoint" />
          </mxGeometry>
        </mxCell>
        <mxCell id="8K5enLgzKz_FKoNzGH6i-25" value="y&#39;en as t&#39;il encore en stock?" style="rounded=0;whiteSpace=wrap;html=1;" parent="1" vertex="1">
          <mxGeometry x="500" y="890" width="120" height="60" as="geometry" />
        </mxCell>
        <mxCell id="8K5enLgzKz_FKoNzGH6i-27" value="&lt;span style=&quot;accent-color: auto; place-content: normal; place-items: normal; place-self: auto; alignment-baseline: auto; anchor-name: none; animation: 0s ease 0s 1 normal none running none; animation-composition: replace; app-region: none; appearance: none; aspect-ratio: auto; backdrop-filter: none; backface-visibility: visible; background: none 0% 0% / auto repeat scroll padding-box border-box rgba(0, 0, 0, 0); background-blend-mode: normal; baseline-shift: 0px; baseline-source: auto; border-image: none 100% / 1 / 0 stretch; border-color: rgb(0, 0, 0); border-collapse: separate; border-end-end-radius: 0px; border-end-start-radius: 0px; border-width: 0px; border-style: none; border-spacing: 0px; border-start-end-radius: 0px; border-start-start-radius: 0px; border-radius: 0px; inset: auto; box-shadow: none; box-sizing: content-box; break-after: auto; break-before: auto; break-inside: auto; buffered-rendering: auto; caption-side: top; caret-color: rgb(0, 0, 0); clear: none; clip: auto; clip-path: none; clip-rule: nonzero; color: rgb(0, 0, 0); color-interpolation: srgb; color-interpolation-filters: linearrgb; color-rendering: auto; color-scheme: normal; columns: auto; column-fill: balance; gap: normal; column-rule: 0px rgb(0, 0, 0); column-span: none; contain: none; contain-intrinsic-block-size: none; contain-intrinsic-size: none; contain-intrinsic-inline-size: none; container: none; content: normal; content-visibility: visible; counter-increment: none; counter-reset: none; counter-set: none; cursor: text; cx: 0px; cy: 0px; d: none; direction: ltr; display: inline; dominant-baseline: auto; empty-cells: show; field-sizing: fixed; fill: rgb(0, 0, 0); fill-opacity: 1; fill-rule: nonzero; filter: none; flex: 0 1 auto; flex-flow: row; float: none; flood-color: rgb(0, 0, 0); flood-opacity: 1; font-family: WordVisi_MSFontService, Calibri, Calibri_EmbeddedFont, Calibri_MSFontService, sans-serif; font-feature-settings: normal; font-kerning: none; font-optical-sizing: auto; font-palette: normal; font-size: 14.6667px; font-size-adjust: none; font-stretch: 100%; font-style: normal; font-synthesis: weight style small-caps; font-variant: none; font-variation-settings: normal; font-weight: 400; forced-color-adjust: auto; grid-area: auto; grid: none; height: auto; hyphenate-character: auto; hyphenate-limit-chars: auto; hyphens: manual; image-orientation: from-image; image-rendering: auto; initial-letter: normal; inline-size: auto; inset-area: none; inset-block: auto; inset-inline: auto; isolation: auto; letter-spacing: normal; lighting-color: rgb(255, 255, 255); line-break: auto; line-height: 18px; list-style: outside none disc; margin: 0px; marker: none; mask: none; mask-type: luminance; math-depth: 0; math-shift: normal; math-style: normal; max-height: none; max-width: none; min-height: 0px; min-width: 0px; mix-blend-mode: normal; object-fit: fill; object-position: 50% 50%; object-view-box: none; offset: normal; opacity: 1; order: 0; orphans: 2; outline: rgb(0, 0, 0) none 0px; outline-offset: 0px; overflow: visible; overflow-anchor: auto; overflow-clip-margin: 0px; overflow-wrap: break-word; overlay: none; overscroll-behavior-block: auto; overscroll-behavior-inline: auto; overscroll-behavior: auto; padding: 0px; page: auto; paint-order: normal; perspective: none; perspective-origin: 0px 0px; pointer-events: auto; position: static; position-anchor: auto; position-try: none; position-visibility: always; quotes: auto; r: 0px; resize: none; rotate: none; ruby-align: space-around; ruby-position: over; rx: auto; ry: auto; scale: none; scroll-behavior: auto; scroll-margin-block: 0px; scroll-margin: 0px; scroll-margin-inline: 0px; scroll-padding-block: auto; scroll-padding: auto; scroll-padding-inline: auto; scroll-snap-align: none; scroll-snap-stop: normal; scroll-snap-type: none; scroll-timeline: none; scrollbar-color: auto; scrollbar-gutter: auto; scrollbar-width: auto; shape-image-threshold: 0; shape-margin: 0px; shape-outside: none; shape-rendering: auto; speak: normal; stop-color: rgb(0, 0, 0); stop-opacity: 1; stroke: none; stroke-dasharray: none; stroke-dashoffset: 0px; stroke-linecap: butt; stroke-linejoin: miter; stroke-miterlimit: 4; stroke-opacity: 1; stroke-width: 1px; tab-size: 8; table-layout: auto; text-align: justify; text-align-last: auto; text-anchor: start; text-combine-upright: none; text-decoration: none solid rgb(0, 0, 0); text-decoration-skip-ink: auto; text-emphasis: none rgb(0, 0, 0); text-emphasis-position: over; text-indent: 0px; text-orientation: mixed; text-overflow: clip; text-rendering: auto; text-shadow: none; text-size-adjust: auto; text-spacing-trim: normal; text-transform: none; text-underline-offset: auto; text-underline-position: auto; white-space: pre-wrap; timeline-scope: none; touch-action: auto; transform: none; transform-box: view-box; transform-origin: 0px 0px; transform-style: flat; transition: all; translate: none; unicode-bidi: normal; user-select: text; vector-effect: none; vertical-align: baseline; view-timeline: none; view-transition-class: none; view-transition-name: none; visibility: visible; border-block-end: 0px none rgb(0, 0, 0); border-block-start: 0px none rgb(0, 0, 0); border-inline-end: 0px none rgb(0, 0, 0); -webkit-border-image: none; border-inline-start: 0px none rgb(0, 0, 0); -webkit-box-align: stretch; -webkit-box-decoration-break: slice; -webkit-box-direction: normal; -webkit-box-flex: 0; -webkit-box-ordinal-group: 1; -webkit-box-orient: horizontal; -webkit-box-pack: start; -webkit-font-smoothing: auto; -webkit-line-break: auto; -webkit-locale: &amp;quot;fr-FR&amp;quot;; block-size: auto; margin-block: 0px; margin-inline: 0px; -webkit-mask-box-image-source: none; -webkit-mask-box-image-slice: 0 fill; -webkit-mask-box-image-width: auto; -webkit-mask-box-image-outset: 0; -webkit-mask-box-image-repeat: stretch; max-block-size: none; max-inline-size: none; min-block-size: 0px; min-inline-size: 0px; padding-block: 0px; padding-inline: 0px; -webkit-print-color-adjust: economy; -webkit-rtl-ordering: logical; -webkit-ruby-position: before; -webkit-tap-highlight-color: rgba(0, 0, 0, 0); -webkit-text-combine: none; -webkit-text-decorations-in-effect: none; -webkit-text-fill-color: rgb(0, 0, 0); -webkit-text-orientation: vertical-right; -webkit-text-security: none; -webkit-text-stroke: 0px rgb(0, 0, 0); -webkit-user-drag: none; -webkit-user-modify: read-only; -webkit-writing-mode: horizontal-tb; widows: 2; width: auto; will-change: auto; word-break: normal; word-spacing: 0px; writing-mode: horizontal-tb; x: 0px; y: 0px; z-index: auto; zoom: 1;&quot; class=&quot;TextRun SCXW19567048 BCX8&quot; lang=&quot;FR-FR&quot; data-contrast=&quot;auto&quot;&gt;&lt;span class=&quot;NormalTextRun SCXW19567048 BCX8&quot;&gt;Pétillants&lt;/span&gt;&lt;/span&gt;" style="text;html=1;align=center;verticalAlign=middle;whiteSpace=wrap;rounded=0;" parent="1" vertex="1">
          <mxGeometry x="630" y="670" width="60" height="30" as="geometry" />
        </mxCell>
        <mxCell id="8K5enLgzKz_FKoNzGH6i-28" value="&lt;span style=&quot;accent-color: auto; place-content: normal; place-items: normal; place-self: auto; alignment-baseline: auto; anchor-name: none; animation: 0s ease 0s 1 normal none running none; animation-composition: replace; app-region: none; appearance: none; aspect-ratio: auto; backdrop-filter: none; backface-visibility: visible; background: none 0% 0% / auto repeat scroll padding-box border-box rgba(0, 0, 0, 0); background-blend-mode: normal; baseline-shift: 0px; baseline-source: auto; border-image: none 100% / 1 / 0 stretch; border-color: rgb(0, 0, 0); border-collapse: separate; border-end-end-radius: 0px; border-end-start-radius: 0px; border-width: 0px; border-style: none; border-spacing: 0px; border-start-end-radius: 0px; border-start-start-radius: 0px; border-radius: 0px; inset: auto; box-shadow: none; box-sizing: content-box; break-after: auto; break-before: auto; break-inside: auto; buffered-rendering: auto; caption-side: top; caret-color: rgb(0, 0, 0); clear: none; clip: auto; clip-path: none; clip-rule: nonzero; color: rgb(0, 0, 0); color-interpolation: srgb; color-interpolation-filters: linearrgb; color-rendering: auto; color-scheme: normal; columns: auto; column-fill: balance; gap: normal; column-rule: 0px rgb(0, 0, 0); column-span: none; contain: none; contain-intrinsic-block-size: none; contain-intrinsic-size: none; contain-intrinsic-inline-size: none; container: none; content: normal; content-visibility: visible; counter-increment: none; counter-reset: none; counter-set: none; cursor: text; cx: 0px; cy: 0px; d: none; direction: ltr; display: inline; dominant-baseline: auto; empty-cells: show; field-sizing: fixed; fill: rgb(0, 0, 0); fill-opacity: 1; fill-rule: nonzero; filter: none; flex: 0 1 auto; flex-flow: row; float: none; flood-color: rgb(0, 0, 0); flood-opacity: 1; font-family: WordVisi_MSFontService, Calibri, Calibri_EmbeddedFont, Calibri_MSFontService, sans-serif; font-feature-settings: normal; font-kerning: none; font-optical-sizing: auto; font-palette: normal; font-size: 14.6667px; font-size-adjust: none; font-stretch: 100%; font-style: normal; font-synthesis: weight style small-caps; font-variant: none; font-variation-settings: normal; font-weight: 400; forced-color-adjust: auto; grid-area: auto; grid: none; height: auto; hyphenate-character: auto; hyphenate-limit-chars: auto; hyphens: manual; image-orientation: from-image; image-rendering: auto; initial-letter: normal; inline-size: auto; inset-area: none; inset-block: auto; inset-inline: auto; isolation: auto; letter-spacing: normal; lighting-color: rgb(255, 255, 255); line-break: auto; line-height: 18px; list-style: outside none disc; margin: 0px; marker: none; mask: none; mask-type: luminance; math-depth: 0; math-shift: normal; math-style: normal; max-height: none; max-width: none; min-height: 0px; min-width: 0px; mix-blend-mode: normal; object-fit: fill; object-position: 50% 50%; object-view-box: none; offset: normal; opacity: 1; order: 0; orphans: 2; outline: rgb(0, 0, 0) none 0px; outline-offset: 0px; overflow: visible; overflow-anchor: auto; overflow-clip-margin: 0px; overflow-wrap: break-word; overlay: none; overscroll-behavior-block: auto; overscroll-behavior-inline: auto; overscroll-behavior: auto; padding: 0px; page: auto; paint-order: normal; perspective: none; perspective-origin: 0px 0px; pointer-events: auto; position: static; position-anchor: auto; position-try: none; position-visibility: always; quotes: auto; r: 0px; resize: none; rotate: none; ruby-align: space-around; ruby-position: over; rx: auto; ry: auto; scale: none; scroll-behavior: auto; scroll-margin-block: 0px; scroll-margin: 0px; scroll-margin-inline: 0px; scroll-padding-block: auto; scroll-padding: auto; scroll-padding-inline: auto; scroll-snap-align: none; scroll-snap-stop: normal; scroll-snap-type: none; scroll-timeline: none; scrollbar-color: auto; scrollbar-gutter: auto; scrollbar-width: auto; shape-image-threshold: 0; shape-margin: 0px; shape-outside: none; shape-rendering: auto; speak: normal; stop-color: rgb(0, 0, 0); stop-opacity: 1; stroke: none; stroke-dasharray: none; stroke-dashoffset: 0px; stroke-linecap: butt; stroke-linejoin: miter; stroke-miterlimit: 4; stroke-opacity: 1; stroke-width: 1px; tab-size: 8; table-layout: auto; text-align: justify; text-align-last: auto; text-anchor: start; text-combine-upright: none; text-decoration: none solid rgb(0, 0, 0); text-decoration-skip-ink: auto; text-emphasis: none rgb(0, 0, 0); text-emphasis-position: over; text-indent: 0px; text-orientation: mixed; text-overflow: clip; text-rendering: auto; text-shadow: none; text-size-adjust: auto; text-spacing-trim: normal; text-transform: none; text-underline-offset: auto; text-underline-position: auto; white-space: pre-wrap; timeline-scope: none; touch-action: auto; transform: none; transform-box: view-box; transform-origin: 0px 0px; transform-style: flat; transition: all; translate: none; unicode-bidi: normal; user-select: text; vector-effect: none; vertical-align: baseline; view-timeline: none; view-transition-class: none; view-transition-name: none; visibility: visible; border-block-end: 0px none rgb(0, 0, 0); border-block-start: 0px none rgb(0, 0, 0); border-inline-end: 0px none rgb(0, 0, 0); -webkit-border-image: none; border-inline-start: 0px none rgb(0, 0, 0); -webkit-box-align: stretch; -webkit-box-decoration-break: slice; -webkit-box-direction: normal; -webkit-box-flex: 0; -webkit-box-ordinal-group: 1; -webkit-box-orient: horizontal; -webkit-box-pack: start; -webkit-font-smoothing: auto; -webkit-line-break: auto; -webkit-locale: &amp;quot;fr-FR&amp;quot;; block-size: auto; margin-block: 0px; margin-inline: 0px; -webkit-mask-box-image-source: none; -webkit-mask-box-image-slice: 0 fill; -webkit-mask-box-image-width: auto; -webkit-mask-box-image-outset: 0; -webkit-mask-box-image-repeat: stretch; max-block-size: none; max-inline-size: none; min-block-size: 0px; min-inline-size: 0px; padding-block: 0px; padding-inline: 0px; -webkit-print-color-adjust: economy; -webkit-rtl-ordering: logical; -webkit-ruby-position: before; -webkit-tap-highlight-color: rgba(0, 0, 0, 0); -webkit-text-combine: none; -webkit-text-decorations-in-effect: none; -webkit-text-fill-color: rgb(0, 0, 0); -webkit-text-orientation: vertical-right; -webkit-text-security: none; -webkit-text-stroke: 0px rgb(0, 0, 0); -webkit-user-drag: none; -webkit-user-modify: read-only; -webkit-writing-mode: horizontal-tb; widows: 2; width: auto; will-change: auto; word-break: normal; word-spacing: 0px; writing-mode: horizontal-tb; x: 0px; y: 0px; z-index: auto; zoom: 1;&quot; class=&quot;TextRun SCXW19567048 BCX8&quot; lang=&quot;FR-FR&quot; data-contrast=&quot;auto&quot;&gt;&lt;span class=&quot;NormalTextRun SCXW19567048 BCX8&quot;&gt;Digestifs&lt;/span&gt;&lt;/span&gt;" style="text;html=1;align=center;verticalAlign=middle;whiteSpace=wrap;rounded=0;" parent="1" vertex="1">
          <mxGeometry x="574" y="770" width="60" height="30" as="geometry" />
        </mxCell>
        <mxCell id="8K5enLgzKz_FKoNzGH6i-29" value="vin" style="text;html=1;align=center;verticalAlign=middle;whiteSpace=wrap;rounded=0;" parent="1" vertex="1">
          <mxGeometry x="440" y="660" width="60" height="30" as="geometry" />
        </mxCell>
        <mxCell id="8K5enLgzKz_FKoNzGH6i-34" value="rouge" style="text;html=1;align=center;verticalAlign=middle;whiteSpace=wrap;rounded=0;" parent="1" vertex="1">
          <mxGeometry x="170" y="590" width="60" height="30" as="geometry" />
        </mxCell>
        <mxCell id="8K5enLgzKz_FKoNzGH6i-35" value="rosé" style="text;html=1;align=center;verticalAlign=middle;whiteSpace=wrap;rounded=0;" parent="1" vertex="1">
          <mxGeometry x="160" y="750" width="60" height="30" as="geometry" />
        </mxCell>
        <mxCell id="8K5enLgzKz_FKoNzGH6i-36" value="blanc" style="text;html=1;align=center;verticalAlign=middle;whiteSpace=wrap;rounded=0;" parent="1" vertex="1">
          <mxGeometry x="50" y="650" width="60" height="30" as="geometry" />
        </mxCell>
        <mxCell id="8K5enLgzKz_FKoNzGH6i-39" value="commander du stock" style="rounded=0;whiteSpace=wrap;html=1;" parent="1" vertex="1">
          <mxGeometry x="770" y="890" width="120" height="60" as="geometry" />
        </mxCell>
        <mxCell id="8K5enLgzKz_FKoNzGH6i-40" value="N" style="text;html=1;align=center;verticalAlign=middle;whiteSpace=wrap;rounded=0;" parent="1" vertex="1">
          <mxGeometry x="610" y="890" width="60" height="30" as="geometry" />
        </mxCell>
        <mxCell id="8K5enLgzKz_FKoNzGH6i-41" value="O" style="text;html=1;align=center;verticalAlign=middle;whiteSpace=wrap;rounded=0;" parent="1" vertex="1">
          <mxGeometry x="550" y="960" width="60" height="30" as="geometry" />
        </mxCell>
        <mxCell id="8K5enLgzKz_FKoNzGH6i-42" value="la commande est passée" style="rounded=0;whiteSpace=wrap;html=1;" parent="1" vertex="1">
          <mxGeometry x="500" y="1040" width="120" height="60" as="geometry" />
        </mxCell>
        <mxCell id="8K5enLgzKz_FKoNzGH6i-43" value="" style="endArrow=classic;html=1;rounded=0;exitX=0.5;exitY=1;exitDx=0;exitDy=0;" parent="1" source="8K5enLgzKz_FKoNzGH6i-42" target="8K5enLgzKz_FKoNzGH6i-44" edge="1">
          <mxGeometry width="50" height="50" relative="1" as="geometry">
            <mxPoint x="690" y="1070" as="sourcePoint" />
            <mxPoint x="560" y="1240" as="targetPoint" />
          </mxGeometry>
        </mxCell>
        <mxCell id="Jk-q1Q9lCbmqTQwoEwEF-2" style="edgeStyle=orthogonalEdgeStyle;rounded=0;orthogonalLoop=1;jettySize=auto;html=1;entryX=0.5;entryY=0;entryDx=0;entryDy=0;" parent="1" source="8K5enLgzKz_FKoNzGH6i-44" target="Jk-q1Q9lCbmqTQwoEwEF-1" edge="1">
          <mxGeometry relative="1" as="geometry" />
        </mxCell>
        <mxCell id="8K5enLgzKz_FKoNzGH6i-44" value="Message à l&#39;utilisateur que la commande est bien prise en compte " style="rounded=0;whiteSpace=wrap;html=1;" parent="1" vertex="1">
          <mxGeometry x="500" y="1210" width="120" height="60" as="geometry" />
        </mxCell>
        <mxCell id="8K5enLgzKz_FKoNzGH6i-47" value="FIN" style="ellipse;whiteSpace=wrap;html=1;" parent="1" vertex="1">
          <mxGeometry x="501" y="2610" width="120" height="80" as="geometry" />
        </mxCell>
        <mxCell id="8K5enLgzKz_FKoNzGH6i-49" value="" style="endArrow=classic;html=1;rounded=0;exitX=0.5;exitY=0;exitDx=0;exitDy=0;" parent="1" source="8K5enLgzKz_FKoNzGH6i-24" target="8K5enLgzKz_FKoNzGH6i-54" edge="1">
          <mxGeometry width="50" height="50" relative="1" as="geometry">
            <mxPoint x="130" y="550" as="sourcePoint" />
            <mxPoint x="155" y="530" as="targetPoint" />
          </mxGeometry>
        </mxCell>
        <mxCell id="8K5enLgzKz_FKoNzGH6i-59" style="edgeStyle=orthogonalEdgeStyle;rounded=0;orthogonalLoop=1;jettySize=auto;html=1;" parent="1" source="8K5enLgzKz_FKoNzGH6i-52" target="8K5enLgzKz_FKoNzGH6i-62" edge="1">
          <mxGeometry relative="1" as="geometry">
            <mxPoint x="350" y="820" as="targetPoint" />
          </mxGeometry>
        </mxCell>
        <mxCell id="8K5enLgzKz_FKoNzGH6i-52" value="choisi la region" style="rounded=0;whiteSpace=wrap;html=1;" parent="1" vertex="1">
          <mxGeometry x="95" y="790" width="120" height="60" as="geometry" />
        </mxCell>
        <mxCell id="8K5enLgzKz_FKoNzGH6i-58" style="edgeStyle=orthogonalEdgeStyle;rounded=0;orthogonalLoop=1;jettySize=auto;html=1;" parent="1" source="8K5enLgzKz_FKoNzGH6i-53" target="8K5enLgzKz_FKoNzGH6i-60" edge="1">
          <mxGeometry relative="1" as="geometry">
            <mxPoint x="-60" y="810" as="targetPoint" />
          </mxGeometry>
        </mxCell>
        <mxCell id="8K5enLgzKz_FKoNzGH6i-53" value="choisi la region" style="rounded=0;whiteSpace=wrap;html=1;" parent="1" vertex="1">
          <mxGeometry x="-120" y="660" width="120" height="60" as="geometry" />
        </mxCell>
        <mxCell id="8K5enLgzKz_FKoNzGH6i-57" style="edgeStyle=orthogonalEdgeStyle;rounded=0;orthogonalLoop=1;jettySize=auto;html=1;" parent="1" source="8K5enLgzKz_FKoNzGH6i-54" target="8K5enLgzKz_FKoNzGH6i-61" edge="1">
          <mxGeometry relative="1" as="geometry">
            <mxPoint x="-100" y="510" as="targetPoint" />
          </mxGeometry>
        </mxCell>
        <mxCell id="8K5enLgzKz_FKoNzGH6i-54" value="choisi la region" style="rounded=0;whiteSpace=wrap;html=1;" parent="1" vertex="1">
          <mxGeometry x="95" y="480" width="120" height="60" as="geometry" />
        </mxCell>
        <mxCell id="8K5enLgzKz_FKoNzGH6i-60" value="choisi la vigne" style="rounded=0;whiteSpace=wrap;html=1;" parent="1" vertex="1">
          <mxGeometry x="-120" y="780" width="120" height="60" as="geometry" />
        </mxCell>
        <mxCell id="8K5enLgzKz_FKoNzGH6i-64" style="edgeStyle=orthogonalEdgeStyle;rounded=0;orthogonalLoop=1;jettySize=auto;html=1;" parent="1" source="8K5enLgzKz_FKoNzGH6i-61" edge="1">
          <mxGeometry relative="1" as="geometry">
            <mxPoint x="560" y="860" as="targetPoint" />
            <Array as="points">
              <mxPoint x="-189" y="510" />
            </Array>
          </mxGeometry>
        </mxCell>
        <mxCell id="8K5enLgzKz_FKoNzGH6i-61" value="choisi la vigne" style="rounded=0;whiteSpace=wrap;html=1;" parent="1" vertex="1">
          <mxGeometry x="-120" y="480" width="120" height="60" as="geometry" />
        </mxCell>
        <mxCell id="8K5enLgzKz_FKoNzGH6i-63" style="edgeStyle=orthogonalEdgeStyle;rounded=0;orthogonalLoop=1;jettySize=auto;html=1;" parent="1" source="8K5enLgzKz_FKoNzGH6i-62" edge="1">
          <mxGeometry relative="1" as="geometry">
            <mxPoint x="560" y="820" as="targetPoint" />
          </mxGeometry>
        </mxCell>
        <mxCell id="8K5enLgzKz_FKoNzGH6i-62" value="choisi la vigne" style="rounded=0;whiteSpace=wrap;html=1;" parent="1" vertex="1">
          <mxGeometry x="310" y="790" width="120" height="60" as="geometry" />
        </mxCell>
        <mxCell id="Jk-q1Q9lCbmqTQwoEwEF-40" style="edgeStyle=orthogonalEdgeStyle;rounded=0;orthogonalLoop=1;jettySize=auto;html=1;" parent="1" source="Jk-q1Q9lCbmqTQwoEwEF-1" target="Jk-q1Q9lCbmqTQwoEwEF-28" edge="1">
          <mxGeometry relative="1" as="geometry" />
        </mxCell>
        <mxCell id="Jk-q1Q9lCbmqTQwoEwEF-1" value="suivre la commande " style="rounded=0;whiteSpace=wrap;html=1;" parent="1" vertex="1">
          <mxGeometry x="500" y="1430" width="120" height="60" as="geometry" />
        </mxCell>
        <mxCell id="Jk-q1Q9lCbmqTQwoEwEF-4" value="" style="endArrow=classic;html=1;rounded=0;exitX=1;exitY=0.5;exitDx=0;exitDy=0;" parent="1" source="8K5enLgzKz_FKoNzGH6i-44" target="Jk-q1Q9lCbmqTQwoEwEF-5" edge="1">
          <mxGeometry width="50" height="50" relative="1" as="geometry">
            <mxPoint x="1160" y="1220" as="sourcePoint" />
            <mxPoint x="1270" y="1240" as="targetPoint" />
          </mxGeometry>
        </mxCell>
        <mxCell id="Jk-q1Q9lCbmqTQwoEwEF-5" value="réception du bon de commande" style="rounded=0;whiteSpace=wrap;html=1;" parent="1" vertex="1">
          <mxGeometry x="1241" y="1200" width="140" height="70" as="geometry" />
        </mxCell>
        <mxCell id="Jk-q1Q9lCbmqTQwoEwEF-6" value="seulement pour l&#39;entreprise" style="rounded=1;whiteSpace=wrap;html=1;" parent="1" vertex="1">
          <mxGeometry x="890" y="1150" width="120" height="60" as="geometry" />
        </mxCell>
        <mxCell id="Jk-q1Q9lCbmqTQwoEwEF-7" value="" style="endArrow=classic;html=1;rounded=0;exitX=0.5;exitY=1;exitDx=0;exitDy=0;" parent="1" source="Jk-q1Q9lCbmqTQwoEwEF-5" target="Jk-q1Q9lCbmqTQwoEwEF-8" edge="1">
          <mxGeometry width="50" height="50" relative="1" as="geometry">
            <mxPoint x="1310" y="1290" as="sourcePoint" />
            <mxPoint x="1310" y="1420" as="targetPoint" />
          </mxGeometry>
        </mxCell>
        <mxCell id="Jk-q1Q9lCbmqTQwoEwEF-10" style="edgeStyle=orthogonalEdgeStyle;rounded=0;orthogonalLoop=1;jettySize=auto;html=1;entryX=0.5;entryY=0;entryDx=0;entryDy=0;" parent="1" source="Jk-q1Q9lCbmqTQwoEwEF-8" target="Jk-q1Q9lCbmqTQwoEwEF-9" edge="1">
          <mxGeometry relative="1" as="geometry" />
        </mxCell>
        <mxCell id="Jk-q1Q9lCbmqTQwoEwEF-8" value="vérification du stock " style="rounded=0;whiteSpace=wrap;html=1;" parent="1" vertex="1">
          <mxGeometry x="1250" y="1390" width="120" height="60" as="geometry" />
        </mxCell>
        <mxCell id="Jk-q1Q9lCbmqTQwoEwEF-17" style="edgeStyle=orthogonalEdgeStyle;rounded=0;orthogonalLoop=1;jettySize=auto;html=1;entryX=0.5;entryY=0;entryDx=0;entryDy=0;" parent="1" source="Jk-q1Q9lCbmqTQwoEwEF-9" target="Jk-q1Q9lCbmqTQwoEwEF-13" edge="1">
          <mxGeometry relative="1" as="geometry" />
        </mxCell>
        <mxCell id="Jk-q1Q9lCbmqTQwoEwEF-9" value="preparation de la commande" style="rounded=0;whiteSpace=wrap;html=1;" parent="1" vertex="1">
          <mxGeometry x="1250" y="1570" width="120" height="60" as="geometry" />
        </mxCell>
        <mxCell id="Jk-q1Q9lCbmqTQwoEwEF-15" style="edgeStyle=orthogonalEdgeStyle;rounded=0;orthogonalLoop=1;jettySize=auto;html=1;" parent="1" source="Jk-q1Q9lCbmqTQwoEwEF-13" target="Jk-q1Q9lCbmqTQwoEwEF-16" edge="1">
          <mxGeometry relative="1" as="geometry">
            <mxPoint x="1640" y="1760" as="targetPoint" />
          </mxGeometry>
        </mxCell>
        <mxCell id="Jk-q1Q9lCbmqTQwoEwEF-19" style="edgeStyle=orthogonalEdgeStyle;rounded=0;orthogonalLoop=1;jettySize=auto;html=1;entryX=0.5;entryY=0;entryDx=0;entryDy=0;" parent="1" source="Jk-q1Q9lCbmqTQwoEwEF-13" target="Jk-q1Q9lCbmqTQwoEwEF-24" edge="1">
          <mxGeometry relative="1" as="geometry">
            <mxPoint x="1310" y="1960" as="targetPoint" />
          </mxGeometry>
        </mxCell>
        <mxCell id="Jk-q1Q9lCbmqTQwoEwEF-13" value="&lt;div&gt;la commande est elle &lt;br&gt;&lt;/div&gt;&lt;div&gt;complétée ?&lt;br&gt;&lt;/div&gt;" style="rhombus;whiteSpace=wrap;html=1;" parent="1" vertex="1">
          <mxGeometry x="1245" y="1700" width="130" height="120" as="geometry" />
        </mxCell>
        <mxCell id="Jk-q1Q9lCbmqTQwoEwEF-23" style="edgeStyle=orthogonalEdgeStyle;rounded=0;orthogonalLoop=1;jettySize=auto;html=1;" parent="1" source="Jk-q1Q9lCbmqTQwoEwEF-16" edge="1">
          <mxGeometry relative="1" as="geometry">
            <mxPoint x="1310" y="1660" as="targetPoint" />
            <Array as="points">
              <mxPoint x="1720" y="1680" />
              <mxPoint x="1721" y="1680" />
            </Array>
          </mxGeometry>
        </mxCell>
        <mxCell id="Jk-q1Q9lCbmqTQwoEwEF-16" value="rajouter ce qu&#39;il manque" style="rounded=0;whiteSpace=wrap;html=1;" parent="1" vertex="1">
          <mxGeometry x="1660" y="1730" width="120" height="60" as="geometry" />
        </mxCell>
        <mxCell id="Jk-q1Q9lCbmqTQwoEwEF-21" value="O" style="text;html=1;align=center;verticalAlign=middle;resizable=0;points=[];autosize=1;strokeColor=none;fillColor=none;" parent="1" vertex="1">
          <mxGeometry x="1315" y="1818" width="30" height="30" as="geometry" />
        </mxCell>
        <mxCell id="Jk-q1Q9lCbmqTQwoEwEF-22" value="N" style="text;html=1;align=center;verticalAlign=middle;resizable=0;points=[];autosize=1;strokeColor=none;fillColor=none;" parent="1" vertex="1">
          <mxGeometry x="1371" y="1730" width="30" height="30" as="geometry" />
        </mxCell>
        <mxCell id="Jk-q1Q9lCbmqTQwoEwEF-25" style="edgeStyle=orthogonalEdgeStyle;rounded=0;orthogonalLoop=1;jettySize=auto;html=1;" parent="1" source="Jk-q1Q9lCbmqTQwoEwEF-24" target="Jk-q1Q9lCbmqTQwoEwEF-26" edge="1">
          <mxGeometry relative="1" as="geometry">
            <mxPoint x="1311" y="2152" as="targetPoint" />
          </mxGeometry>
        </mxCell>
        <mxCell id="Jk-q1Q9lCbmqTQwoEwEF-24" value="inventorier le stock" style="rounded=0;whiteSpace=wrap;html=1;" parent="1" vertex="1">
          <mxGeometry x="1251" y="1880" width="120" height="60" as="geometry" />
        </mxCell>
        <mxCell id="Jk-q1Q9lCbmqTQwoEwEF-39" style="edgeStyle=orthogonalEdgeStyle;rounded=0;orthogonalLoop=1;jettySize=auto;html=1;entryX=1;entryY=0.5;entryDx=0;entryDy=0;" parent="1" source="Jk-q1Q9lCbmqTQwoEwEF-26" target="Jk-q1Q9lCbmqTQwoEwEF-28" edge="1">
          <mxGeometry relative="1" as="geometry" />
        </mxCell>
        <mxCell id="Jk-q1Q9lCbmqTQwoEwEF-26" value="régulariser le stock" style="rounded=0;whiteSpace=wrap;html=1;" parent="1" vertex="1">
          <mxGeometry x="1251" y="2040" width="120" height="60" as="geometry" />
        </mxCell>
        <mxCell id="Jk-q1Q9lCbmqTQwoEwEF-33" style="edgeStyle=orthogonalEdgeStyle;rounded=0;orthogonalLoop=1;jettySize=auto;html=1;entryX=0.5;entryY=0;entryDx=0;entryDy=0;" parent="1" source="Jk-q1Q9lCbmqTQwoEwEF-28" target="Jk-q1Q9lCbmqTQwoEwEF-30" edge="1">
          <mxGeometry relative="1" as="geometry" />
        </mxCell>
        <mxCell id="Jk-q1Q9lCbmqTQwoEwEF-28" value="la commande a été envoyée" style="rounded=0;whiteSpace=wrap;html=1;" parent="1" vertex="1">
          <mxGeometry x="501" y="2040" width="120" height="60" as="geometry" />
        </mxCell>
        <mxCell id="Jk-q1Q9lCbmqTQwoEwEF-31" style="edgeStyle=orthogonalEdgeStyle;rounded=0;orthogonalLoop=1;jettySize=auto;html=1;" parent="1" source="Jk-q1Q9lCbmqTQwoEwEF-30" target="8K5enLgzKz_FKoNzGH6i-47" edge="1">
          <mxGeometry relative="1" as="geometry" />
        </mxCell>
        <mxCell id="Jk-q1Q9lCbmqTQwoEwEF-37" style="edgeStyle=orthogonalEdgeStyle;rounded=0;orthogonalLoop=1;jettySize=auto;html=1;entryX=0;entryY=0.5;entryDx=0;entryDy=0;" parent="1" source="Jk-q1Q9lCbmqTQwoEwEF-30" target="Jk-q1Q9lCbmqTQwoEwEF-36" edge="1">
          <mxGeometry relative="1" as="geometry" />
        </mxCell>
        <mxCell id="Jk-q1Q9lCbmqTQwoEwEF-30" value="Avez-vous reçu&amp;nbsp;&lt;div&gt;la commande ?&lt;/div&gt;" style="rhombus;whiteSpace=wrap;html=1;" parent="1" vertex="1">
          <mxGeometry x="481" y="2240" width="160" height="160" as="geometry" />
        </mxCell>
        <mxCell id="Jk-q1Q9lCbmqTQwoEwEF-34" value="N" style="text;html=1;align=center;verticalAlign=middle;resizable=0;points=[];autosize=1;strokeColor=none;fillColor=none;" parent="1" vertex="1">
          <mxGeometry x="636" y="2288" width="30" height="30" as="geometry" />
        </mxCell>
        <mxCell id="Jk-q1Q9lCbmqTQwoEwEF-35" value="O" style="text;html=1;align=center;verticalAlign=middle;resizable=0;points=[];autosize=1;strokeColor=none;fillColor=none;" parent="1" vertex="1">
          <mxGeometry x="566" y="2398" width="30" height="30" as="geometry" />
        </mxCell>
        <mxCell id="Jk-q1Q9lCbmqTQwoEwEF-38" style="edgeStyle=orthogonalEdgeStyle;rounded=0;orthogonalLoop=1;jettySize=auto;html=1;" parent="1" source="Jk-q1Q9lCbmqTQwoEwEF-36" edge="1">
          <mxGeometry relative="1" as="geometry">
            <mxPoint x="561" y="2170" as="targetPoint" />
            <Array as="points">
              <mxPoint x="921" y="2214" />
              <mxPoint x="922" y="2214" />
            </Array>
          </mxGeometry>
        </mxCell>
        <mxCell id="Jk-q1Q9lCbmqTQwoEwEF-36" value="Contacter le SAV" style="rounded=0;whiteSpace=wrap;html=1;" parent="1" vertex="1">
          <mxGeometry x="861" y="2290" width="120" height="60" as="geometry" />
        </mxCell>
      </root>
    </mxGraphModel>
  </diagram>
</mxfile>
